<?xml version="1.0" encoding="UTF-8" standalone="no"?>
<!-- Created with Inkscape (http://www.inkscape.org/) -->

<svg
   width="210mm"
   height="210mm"
   viewBox="0 0 210 210"
   version="1.1"
   id="svg5"
   inkscape:version="1.1.2 (0a00cf5339, 2022-02-04, custom)"
   sodipodi:docname="soldier.svg"
   xmlns:inkscape="http://www.inkscape.org/namespaces/inkscape"
   xmlns:sodipodi="http://sodipodi.sourceforge.net/DTD/sodipodi-0.dtd"
   xmlns="http://www.w3.org/2000/svg"
   xmlns:svg="http://www.w3.org/2000/svg">
  <sodipodi:namedview
     id="namedview7"
     pagecolor="#ffffff"
     bordercolor="#111111"
     borderopacity="1"
     inkscape:pageshadow="0"
     inkscape:pageopacity="0"
     inkscape:pagecheckerboard="1"
     inkscape:document-units="mm"
     showgrid="false"
     inkscape:zoom="0.58010563"
     inkscape:cx="400.78907"
     inkscape:cy="471.46586"
     inkscape:window-width="1920"
     inkscape:window-height="1020"
     inkscape:window-x="0"
     inkscape:window-y="32"
     inkscape:window-maximized="1"
     inkscape:current-layer="layer1"
     inkscape:snap-others="false" />
  <defs
     id="defs2" />
  <g
     inkscape:label="Katman 1"
     inkscape:groupmode="layer"
     id="layer1">
    <path
       style="fill:#000000;fill-opacity:1;stroke:none;stroke-width:0.246305"
       d="m 515.35846,61.084254 v 0.246307 l -13.54682,12.027357 -8.86699,8.169715 h -0.24631 c -0.91798,-1.342366 -3.93892,-5.852225 -5.66503,-5.860599 -1.82513,-0.0088 -4.84017,3.891385 -6.15764,5.051239 -3.71381,3.269709 -9.30569,7.211833 -10.82761,12.139426 -0.75148,2.433753 -0.2766,4.676609 -0.25616,7.142871 l -4.99655,-5.418731 -2.39263,-1.990889 -2.46305,1.498279 -5.91133,5.102961 -15.51726,13.6483 -8.37441,6.61822 -1.23153,-5.41871 c -2.27759,0.90122 -2.42192,3.29483 -3.95173,4.92612 -2.7032,2.8825 -5.68768,5.45911 -8.60986,8.10961 -1.25197,1.13547 -3.26084,2.40148 -4.00198,3.95936 -0.78078,1.64089 1.79138,2.71503 3.01675,2.46306 -5.96108,5.91183 -12.45666,11.36209 -18.71923,16.95421 -2.44015,2.17883 -6.05026,4.41798 -7.79238,7.20592 -2.53005,4.04927 -4.03399,9.15396 -5.96626,13.52465 -5.50568,12.45248 -10.13485,16.58878 -20.62255,25.71047 -4.22635,3.67562 -8.68205,8.64251 -14.28639,8.2499 -1.92963,-0.13546 -7.76678,-3.00669 -9.65629,-2.58845 -3.42772,0.75836 -11.01598,1.38423 -13.90884,3.33572 43.1686,-5.33112 49.07217,-6.79505 72.09222,-3.18006 3.13721,-2.7505 5.9171,-1.1566 9.0075,-3.9598 0.77217,-0.7005 2.5266,-2.90961 3.69458,-2.46405 2.21011,0.84336 3.53548,4.42439 4.33498,6.42341 10.67978,-2.25541 16.84871,-2.88046 22.70176,-5.66502 -0.71748,-1.31971 -2.68374,-3.63966 -2.59655,-5.17243 0.064,-1.12512 1.43202,-2.217 2.16183,-2.95567 1.74286,-1.76404 3.54605,-3.47316 4.76108,-5.66503 3.15592,-5.69311 -0.35763,-8.90987 -2.29902,-14.03943 1.66404,-0.77611 3.1202,-2.41773 4.4335,-3.69459 0.49681,-0.48301 1.18203,-1.38129 1.97046,-1.28817 1.1133,0.13152 2.06503,1.76132 2.75122,2.5197 2.00247,2.21306 4.2414,4.28178 6.6084,6.09976 5.53177,4.24877 11.71626,7.24065 17.98032,10.21923 2.95444,1.40494 6.3505,3.3904 9.60592,3.87809 l 9.35961,-22.41384 c -6.91995,-4.03891 -14.6973,-6.2899 -21.4286,-10.75543 -1.86304,-1.23597 -5.80887,-3.51281 -6.0867,-5.99335 -0.14778,-1.31947 1.95172,-3.70271 2.35468,-5.17243 0.91429,-3.33547 0.82562,-8.08276 2.49754,-11.08006 1.12735,-2.02093 3.93572,-3.8271 5.66799,-5.35223 2.49384,-2.19556 4.95198,-4.4399 7.38917,-6.69853 0.75296,-0.69803 2.27907,-1.56601 2.28153,-2.73128 10e-4,-0.97315 -1.03399,-2.01306 -1.61306,-2.70936 -1.51576,-1.82365 -3.11231,-3.57907 -4.60936,-5.41874 2.14211,0.27217 4.23227,0.72637 6.40396,0.38449 5.39705,-0.84951 9.62538,-5.74138 13.54681,-9.18129 1.35689,-1.190154 5.6766,-3.928574 5.93178,-5.757153 0.33375,-2.393846 -5.52364,-4.566262 -4.09656,-6.874641 2.21552,-3.583255 6.83967,-6.668482 9.98745,-9.429815 5.87564,-5.153949 11.42859,-10.759056 17.48771,-15.693373 v -0.246306 c -1.06305,-1.216874 -3.7266,-5.614096 -5.4197,-5.614096 -1.30223,0 -3.01429,2.433082 -3.69361,3.397343 -1.24507,-1.300912 -3.7197,-5.50843 -5.66133,-5.50843 -1.12021,0 -1.39385,1.244829 -0.97932,2.06015 0.89852,1.767958 2.86454,3.733577 4.42389,4.926115 m -86.20701,60.098616 -1.23153,1.23151 1.23153,-1.23151 m -4.1872,3.69458 -1.97043,1.97044 1.97043,-1.97044 m -4.43351,3.94089 -1.97043,1.97045 1.97043,-1.97045 m 24.13798,0.30936 c 1.07709,0.0881 2.39064,1.59729 1.80738,2.64261 -0.89877,1.61086 -3.15738,2.93942 -4.51675,4.17243 -6.64114,6.02365 -13.55569,11.74706 -20.19708,17.77096 -1.6202,1.4697 -3.2761,2.90862 -4.92611,4.34483 -0.55666,0.48424 -1.39336,1.42463 -2.21306,1.32119 -0.98571,-0.12408 -2.20739,-1.77439 -1.76946,-2.72783 0.78029,-1.69853 3.35445,-3.1872 4.72143,-4.43449 6.53278,-5.96062 13.2488,-11.74978 19.95078,-17.51974 l 4.92611,-4.22193 c 0.58671,-0.50074 1.35961,-1.41823 2.21676,-1.34803 m -8.1281,42.05523 c 4.16159,5.81134 3.83573,10.14165 -1.23252,15.27096 -1.05812,1.07094 -2.07069,2.31381 -3.44729,2.95567 l -3.94089,-7.14287 c 2.06034,-0.69754 3.83991,-0.43866 5.91133,-0.004 0.75322,0.15813 1.9909,0.39877 2.52415,-0.36824 0.4372,-0.62855 -0.28794,-1.19359 -0.80492,-1.42536 -2.15444,-0.96576 -4.26676,-1.45369 -6.39903,-2.63622 v -0.49261 l 7.38917,-6.15764 m -57.14293,25.12335 c 2.23324,1.04138 3.9537,3.56971 5.52217,5.41873 0.5,0.58942 1.37389,1.35172 1.18916,2.21675 -0.4702,2.20271 -5.06995,-9.08326 -6.71133,-7.63548 -47.71331,28.04049 -18.47294,10.27382 0,0 z"
       id="path3144"
       sodipodi:nodetypes="cccccsccccccccccscccccccccccccccssccsssscccssccscccccccccccscsccccccccccccsccccccccccsccsccccccsccc" />
    <path
       style="fill:#f6e6b0;fill-opacity:1;stroke:none;stroke-width:0.338798px;stroke-linecap:butt;stroke-linejoin:miter;stroke-opacity:1"
       d="m 65.574815,149.95044 8.796608,-3.15927 -0.033,-3.81764 1.56125,-19.01451 0.640664,-6.93584 -6.073414,-11.43569 -4.842012,-17.236079 -2.449704,-21.596554 19.223213,-34.519449 17.378572,-6.977957 8.285728,-0.232405 22.67482,6.547851 17.01952,15.152317 0.0943,12.181593 -1.646,12.667514 -2.88032,23.736738 -4.73014,13.570331 -4.44961,8.20479 0.69619,7.84039 0.45239,18.89323 0.7389,2.97137 3.19785,2.00962 2.90051,1.03956 23.14633,10.62766 13.57373,19.57057 -24.51191,20.72156 -37.95681,5.32072 -5.08918,0.2436 -5.48923,-0.79537 -7.77582,0.61587 -4.006448,-0.0641 -31.732702,-6.45764 -34.146098,-22.56326 19.172767,-16.38595 z"
       id="path1835" />
    <path
       style="fill:#001805;fill-opacity:1;stroke:none;stroke-width:0.338798"
       d="m 76.743011,57.009694 c 0.974384,-1.767171 2.949239,-1.355193 4.743176,-1.355193 h 12.196731 40.655792 c 3.55467,0 11.83321,1.512056 14.50565,-1.066537 9.75468,-9.413001 -2.35262,-24.273506 -9.76247,-30.285888 -16.26131,-13.194418 -38.47325,-13.74695 -56.918108,-4.867108 -11.739359,5.65173 -21.628541,15.123412 -26.99104,27.07198 -2.380396,5.30287 -4.1557,12.188267 -2.55725,17.956308 0.833106,3.005141 2.742911,5.515297 5.493614,6.994491 1.266429,0.680983 4.077099,0.703345 4.683548,2.20151 0.650492,1.606921 -2.69243,3.429994 -3.135579,5.033865 -0.843269,3.050878 0.154492,7.541649 1.063488,10.502407 0.908318,2.95737 4.126225,2.75748 5.282882,5.118564 1.657401,3.383585 2.145609,7.590777 3.508256,11.143757 1.519171,3.9619 4.241415,7.57553 5.597624,11.51914 0.786013,2.28553 -0.205311,5.74399 -0.368611,8.13116 -0.41198,6.01536 -0.696231,12.26246 -0.509554,18.2951 0.08843,2.84794 2.6389,5.97099 3.894148,8.46997 1.786483,3.55704 3.727119,9.71029 6.824752,12.26313 3.395436,2.79847 11.271137,3.12271 15.50882,3.30837 6.01232,0.26324 11.71464,-0.30898 17.61751,-1.24915 2.23302,-0.35574 5.9449,-0.75484 7.65177,-2.34178 2.93636,-2.73071 4.7601,-8.4154 6.55066,-11.98057 1.22408,-2.43698 3.61024,-5.38894 3.87653,-8.13116 0.57935,-5.97302 -0.0823,-12.65344 -0.49194,-18.63391 -0.17414,-2.54709 -1.27117,-6.05873 -0.23207,-8.46996 1.64452,-3.8169 3.95648,-7.25638 5.46108,-11.18034 1.36163,-3.55061 1.85323,-7.764922 3.50826,-11.143757 0.80498,-1.64351 3.03732,-1.806471 4.21533,-3.157938 1.87931,-2.156451 2.19033,-6.648239 2.31061,-9.414187 0.0647,-1.493084 0.0786,-3.079338 -0.78094,-4.369143 -1.01707,-1.525947 -2.7358,-2.071413 -2.91265,-4.100815 -0.331,-3.794879 0.5597,-7.7246 0.65253,-11.51914 0.0274,-1.111597 0.39166,-3.272114 -0.3432,-4.200083 -0.79279,-1.00081 -3.27144,-0.543093 -4.39489,-0.543093 H 129.93433 76.743011 M 101.92181,34.175843 c 2.686,-1.321788 8.4188,-0.204634 11.41141,-0.204431 0.94965,6.8e-5 2.70192,-0.311017 3.37849,0.54323 0.77619,0.980109 0.37235,3.360301 0.34321,4.538744 -0.10909,4.450285 -0.94864,10.772429 -5.41569,13.007143 -7.1771,3.590246 -9.46331,-6.609175 -10.29438,-11.313152 -0.24326,-1.376198 -0.96151,-5.814456 0.57696,-6.571534 m -2.47932,9.28192 c 1.63911,3.885677 -1.646896,4.445373 -4.40437,6.216271 -4.631713,2.97431 -6.581838,4.625274 -12.196741,4.625274 -1.812909,0 -3.734573,0.359465 -5.081974,-1.016394 7.033792,-4.266826 14.035394,-6.974502 21.683085,-9.825151 M 74.755282,62.97356 c 1.398897,-0.589171 3.543491,-0.204295 5.036913,-0.204295 h 10.841539 37.945416 12.19673 c 1.06755,0 3.29955,-0.411979 4.05609,0.543093 0.78906,0.996067 0.34829,3.342584 0.34829,4.538881 0,4.143841 -0.3178,8.084742 -0.64846,12.196737 -1.44397,17.948174 -8.06069,40.985784 -26.1166,48.742574 -3.77253,1.62047 -7.75577,2.41563 -11.85795,2.41597 -4.15366,3.4e-4 -8.213145,-0.10334 -12.196731,-1.45649 C 79.23555,124.61181 71.017658,108.38812 68.167687,93.599906 67.249206,88.83437 66.390352,84.200966 65.804909,79.370379 c -0.223945,-1.846111 -1.166143,-4.570726 -0.376743,-6.361275 0.799563,-1.813588 4.095732,-2.868944 5.432968,-4.493821 1.200701,-1.459204 2.125281,-4.796706 3.894148,-5.541723 m 2.665326,57.39141 c 3.813174,2.38582 6.532369,6.22068 10.502745,8.58854 9.690641,5.78024 22.833987,5.76906 32.863427,0.91645 4.73132,-2.28926 7.94482,-7.62297 12.53553,-9.50499 0.2226,10.77616 3.87484,25.21439 -4.81906,33.76836 -2.69175,2.64839 -7.52606,3.85349 -11.10445,4.61241 -8.24025,1.74752 -16.14137,1.73972 -24.39347,0 -3.577031,-0.75416 -8.415074,-1.96639 -11.104454,-4.61241 -6.565233,-6.45952 -5.197166,-14.80649 -5.158205,-22.92681 0.01626,-3.36732 -0.680984,-7.6914 0.677937,-10.84155 m -25.748668,47.77056 25.071071,0.67759 c -0.888668,3.16607 -4.826181,6.32266 -7.080545,8.69526 -0.89951,0.94661 -2.598583,2.28452 -2.194736,3.77794 0.387247,1.43244 2.434944,2.56267 3.502498,3.44931 3.158955,2.62365 6.288772,5.28965 9.441968,7.92008 3.590245,2.99499 7.196414,5.98826 10.755492,9.02085 1.694329,1.44362 3.504862,3.53671 5.564414,4.42538 2.304176,0.99403 5.705028,0.22631 8.131158,0.10602 2.69075,-0.13314 5.8331,0.87749 8.46996,0.0206 2.09107,-0.67964 3.97377,-2.89741 5.61592,-4.3041 3.451,-2.95669 7.0365,-5.75787 10.45125,-8.75726 3.27313,-2.8747 6.68077,-5.64708 10.03351,-8.43166 1.0723,-0.8907 3.43982,-2.19407 3.56076,-3.75728 0.11423,-1.48021 -1.5964,-2.77171 -2.50507,-3.73458 -2.18253,-2.31263 -5.9642,-5.35165 -6.82847,-8.43065 l 25.07106,-0.67759 c -0.94999,-2.4502 -3.26059,-4.04052 -5.11246,-5.81853 -3.7427,-3.59363 -7.47118,-7.21335 -11.28029,-10.73855 -1.8905,-1.74922 -3.68442,-4.25802 -6.30673,-4.78721 l -23.01083,44.38256 -5.42111,10.50276 -2.3987,3.31784 -2.39869,-3.31784 -5.429572,-10.50276 -23.002375,-44.38256 c -2.622298,0.52919 -4.416236,3.03799 -6.30673,4.78721 -3.809108,3.5252 -7.537584,7.14492 -11.280288,10.73855 -1.851871,1.77801 -4.162476,3.36833 -5.112465,5.81853 m 42.349785,37.9454 c -4.168583,-5.37571 -11.04957,-9.62628 -16.262659,-13.98763 -4.027295,-3.36935 -8.174863,-8.04849 -12.873994,-10.40585 l 8.808754,-11.18034 -11.857938,-0.68268 -13.55193,-0.67251 9.152634,-9.17805 10.836462,-10.13345 c -1.600144,-0.97981 -4.171961,0.82599 -5.759571,1.49782 -5.121951,2.1673 -10.38857,4.01239 -15.584719,5.98691 -13.382193,5.08434 -29.391122,9.54258 -37.9780993,21.99072 -2.9939258,4.34034 -4.5214657,9.14585 -5.5619159,14.22953 -0.6942985,3.39238 -1.7493503,8.39067 -0.7348532,11.80778 0.4985079,1.67909 3.6361183,1.06654 4.9742701,1.06654 H 23.890482 70.98344 c 7.235715,0 15.999748,1.33691 23.038285,-0.33879 m 48.109345,-56.57932 v 0.33881 l 10.83647,10.13345 9.15263,9.17805 -13.55194,0.67251 -11.85793,0.68268 8.80875,11.18034 c -4.69913,2.35736 -8.8467,7.0365 -12.87399,10.40585 -5.21309,4.36135 -12.09408,8.61192 -16.26265,13.98763 6.93858,1.65198 15.56709,0.33879 22.69948,0.33879 h 46.75416 16.26231 c 1.28269,0 4.52058,0.58139 5.41128,-0.54308 0.91036,-1.14921 0.35067,-4.15943 0.3483,-5.55529 -0.0102,-6.31418 -1.78649,-13.1657 -4.9512,-18.6339 -9.05506,-15.6457 -29.3755,-20.6694 -45.19095,-26.5218 -3.40525,-1.26 -6.8217,-2.55285 -10.16395,-3.97004 -1.70584,-0.72334 -3.54789,-1.91489 -5.42077,-1.694 m -53.530126,22.0219 c 0.620683,1.84678 1.687555,5.05723 3.450671,6.09023 4.8028,2.81338 15.323155,1.92437 20.604005,1.05164 1.73499,-0.28663 4.54261,-0.28731 5.9869,-1.33419 1.56187,-1.13261 2.64195,-4.01104 3.16066,-5.80768 l -13.89074,1.68891 -19.311496,-1.68891 m 6.77597,12.87433 c 0.430272,1.7072 1.46768,4.67102 2.942119,5.75144 2.275037,1.66688 8.313437,0.83785 10.948607,0.49058 0.88663,-0.11653 2.11376,0.0294 2.88148,-0.49194 1.45344,-0.98725 2.46611,-4.11571 2.87809,-5.75008 l -10.84154,0.33371 -8.808756,-0.33371 m 6.437156,12.53554 c 0.32323,1.28235 1.77057,5.54409 3.39748,5.54409 1.70415,0 3.04444,-4.21906 3.37849,-5.54409 z"
       id="path1702" />
  </g>
</svg>
